<?xml version="1.0" standalone="no"?>
<!DOCTYPE svg PUBLIC "-//W3C//DTD SVG 20010904//EN"
 "http://www.w3.org/TR/2001/REC-SVG-20010904/DTD/svg10.dtd">
<svg version="1.0" xmlns="http://www.w3.org/2000/svg"
 width="271.000000pt" height="271.000000pt" viewBox="0 0 271.000000 271.000000"
 preserveAspectRatio="xMidYMid meet">
<metadata>
Created by potrace 1.14, written by Peter Selinger 2001-2017
</metadata>
<g transform="translate(0.000000,271.000000) scale(0.100000,-0.100000)"
fill="#000000" stroke="none">
<path d="M1200 2703 c-160 -23 -353 -83 -468 -145 -69 -37 -206 -127 -247
-163 -241 -206 -396 -469 -462 -785 -13 -64 -17 -128 -17 -255 1 -157 6 -199
38 -334 38 -161 151 -383 266 -521 44 -52 159 -166 191 -187 13 -9 26 -20 29
-23 12 -15 160 -108 220 -138 317 -157 706 -184 1035 -71 258 89 491 254 645
459 14 18 31 39 38 46 6 7 12 17 12 23 0 5 7 16 15 25 28 28 115 210 145 303
55 173 65 240 64 443 -1 212 -38 374 -130 565 -37 77 -123 219 -143 235 -3 3
-18 21 -33 41 -32 43 -152 162 -188 185 -14 9 -29 22 -35 28 -19 21 -140 95
-220 134 -192 95 -359 134 -580 137 -82 1 -161 0 -175 -2z"/>
</g>
</svg>
