<?xml version="1.0" standalone="no"?>
<!DOCTYPE svg PUBLIC "-//W3C//DTD SVG 20010904//EN"
 "http://www.w3.org/TR/2001/REC-SVG-20010904/DTD/svg10.dtd">
<svg version="1.0" xmlns="http://www.w3.org/2000/svg"
 width="955.000000pt" height="955.000000pt" viewBox="0 0 955.000000 955.000000"
 preserveAspectRatio="xMidYMid meet">
<metadata>
Created by potrace 1.14, written by Peter Selinger 2001-2017
</metadata>
<g transform="translate(0.000000,955.000000) scale(0.100000,-0.100000)"
fill="#000000" stroke="none">
<path d="M4950 9537 c-3 -3 -21 -8 -40 -11 -41 -8 -46 -9 -83 -24 -16 -7 -30
-12 -32 -12 -24 0 -175 -121 -175 -140 0 -11 -12 -14 -55 -10 -52 4 -168 3
-205 -2 -19 -3 -56 -15 -82 -27 -26 -11 -50 -21 -53 -21 -24 0 -194 -146 -195
-167 0 -5 -7 -16 -14 -25 -12 -16 -19 -12 -79 47 -44 44 -88 76 -134 97 -37
18 -72 33 -78 35 -57 14 -92 17 -160 17 -44 0 -93 -2 -110 -6 -63 -13 -147
-51 -202 -92 -57 -42 -113 -96 -100 -96 3 0 -5 -11 -18 -25 -14 -13 -25 -31
-25 -40 0 -8 -4 -15 -9 -15 -5 0 -17 -22 -26 -48 -20 -54 -43 -64 -78 -32 -32
31 -144 81 -211 95 -112 23 -244 7 -346 -43 -149 -73 -265 -230 -287 -389 -5
-36 -10 -44 -32 -50 -26 -6 -101 -45 -129 -67 -39 -29 -132 -130 -132 -142 0
-8 -4 -14 -8 -14 -9 0 -45 -81 -63 -140 -5 -19 -12 -64 -15 -99 -3 -36 -6 -67
-8 -69 -2 -2 -33 5 -68 15 -40 12 -90 18 -138 17 -65 -2 -89 -5 -135 -18 -5
-2 -23 -6 -40 -11 -16 -4 -42 -17 -57 -27 -16 -11 -28 -17 -28 -13 0 8 -111
-78 -130 -102 -65 -79 -104 -154 -127 -244 -8 -32 -8 -197 1 -230 9 -39 -14
-52 -97 -55 -67 -2 -97 -5 -154 -18 -92 -20 -256 -145 -298 -227 -10 -19 -21
-36 -24 -39 -4 -3 -17 -36 -30 -73 -29 -84 -35 -200 -16 -284 8 -33 16 -67 17
-74 2 -8 6 -16 9 -19 21 -17 17 -48 -11 -80 -17 -19 -30 -39 -30 -43 0 -4 -9
-27 -21 -50 -69 -138 -59 -332 24 -482 23 -40 24 -47 11 -60 -9 -8 -18 -15
-22 -16 -30 -3 -55 -12 -104 -36 -32 -15 -58 -31 -58 -35 0 -5 -6 -8 -13 -8
-10 0 -58 -43 -110 -101 -24 -25 -75 -121 -93 -174 -18 -50 -25 -211 -12 -265
17 -69 23 -88 50 -138 15 -30 46 -76 68 -103 l41 -48 -14 -61 c-20 -84 -14
-208 12 -275 7 -16 12 -31 11 -33 -1 -1 11 -28 26 -59 28 -56 143 -183 166
-183 7 0 1 -8 -12 -17 -86 -60 -146 -128 -188 -212 -37 -74 -40 -83 -49 -136
-8 -49 -11 -179 -5 -190 3 -5 7 -22 9 -39 2 -16 8 -35 14 -43 6 -7 9 -13 5
-13 -4 0 3 -19 15 -43 12 -23 22 -44 22 -47 1 -6 14 -22 49 -62 15 -16 28 -33
30 -37 6 -14 95 -80 134 -100 56 -29 59 -50 18 -97 -18 -22 -34 -45 -34 -51 0
-7 -4 -13 -9 -13 -12 0 -57 -106 -71 -172 -7 -32 -11 -91 -8 -139 5 -83 34
-199 50 -199 4 0 8 -7 8 -16 0 -39 125 -169 208 -217 34 -20 62 -34 62 -30 0
3 7 0 15 -7 8 -7 15 -9 15 -5 0 4 6 2 14 -4 8 -6 18 -11 22 -10 28 5 42 -4 47
-28 3 -16 11 -41 18 -58 7 -16 13 -33 13 -37 1 -4 7 -13 14 -20 6 -6 12 -18
12 -25 0 -7 5 -13 10 -13 6 0 10 -6 10 -12 0 -30 168 -176 210 -184 3 0 17 -6
31 -12 43 -18 106 -32 145 -34 41 -2 41 2 6 -123 -22 -81 -23 -206 -3 -270 21
-66 64 -155 74 -155 6 0 8 -3 4 -6 -3 -4 0 -13 8 -21 8 -8 18 -20 22 -27 17
-27 144 -126 163 -126 11 0 20 -4 20 -8 0 -21 109 -45 215 -48 102 -3 110 -5
121 -26 7 -14 9 -41 5 -68 -7 -47 3 -171 15 -199 4 -9 9 -24 10 -34 4 -17 40
-89 67 -132 22 -36 137 -145 153 -145 3 0 18 -8 32 -18 25 -17 88 -41 122 -45
8 -2 20 -6 25 -9 20 -12 209 -6 244 8 45 19 73 18 93 -3 39 -44 162 -113 199
-113 9 0 19 -3 23 -7 14 -15 157 -21 221 -10 66 11 78 15 142 43 17 8 35 14
41 14 17 0 30 -24 36 -65 15 -94 96 -220 196 -307 29 -25 123 -71 182 -89 68
-20 242 -20 293 0 17 7 30 11 30 10 0 -6 96 48 136 77 42 30 47 32 71 19 15
-7 29 -11 32 -8 3 3 12 1 20 -6 11 -9 88 -20 161 -23 20 -1 101 13 135 24 79
24 207 98 193 112 -3 3 -1 6 6 6 6 0 22 11 35 25 13 14 26 25 29 25 3 0 16
-17 28 -37 62 -100 161 -185 266 -226 60 -23 87 -28 179 -32 122 -6 236 29
330 101 48 37 104 91 104 100 0 3 6 12 13 19 29 33 37 45 37 55 0 30 72 -8
125 -66 23 -25 119 -75 182 -94 114 -34 268 -27 352 16 14 8 32 14 39 14 6 0
12 4 12 9 0 5 10 13 22 17 27 8 35 15 108 87 53 53 106 140 125 204 5 17 18
24 63 33 31 7 67 18 79 26 12 8 27 14 32 14 19 0 106 64 154 112 60 61 111
153 133 241 16 66 18 68 43 62 14 -4 28 -10 31 -14 5 -8 61 -24 69 -21 2 1 7
-3 10 -8 3 -6 26 -13 51 -16 25 -2 45 -5 45 -6 0 -1 26 -3 58 -4 31 -1 57 2
57 7 0 4 5 5 10 2 26 -16 192 46 252 92 48 38 129 128 134 150 4 13 10 23 14
23 9 0 46 91 55 137 6 25 13 103 14 156 1 10 9 21 19 24 22 8 103 72 120 95 7
9 18 23 25 30 19 19 78 118 71 118 -4 0 -2 6 4 13 12 14 32 87 37 132 2 16 4
30 5 30 1 0 3 10 4 23 2 12 0 22 -3 22 -3 0 -7 27 -8 60 -1 59 -1 59 25 54 62
-10 102 -11 106 0 3 7 5 6 5 -2 1 -9 6 -10 20 -3 10 6 21 8 24 5 3 -3 22 -1
43 5 22 6 42 11 47 11 19 0 147 72 147 82 0 6 3 9 6 5 12 -12 144 133 144 158
0 8 5 15 10 15 6 0 10 6 10 13 0 6 6 24 14 38 50 96 50 301 1 396 -13 24 -12
29 2 45 9 10 27 18 41 18 37 0 162 32 162 42 0 4 6 8 14 8 19 0 114 66 152
105 63 65 121 166 131 231 3 18 9 34 13 34 11 0 4 191 -9 243 -11 48 -39 109
-70 156 -15 24 -16 61 -2 71 7 5 40 105 45 132 1 7 5 19 9 26 5 7 3 12 -3 12
-6 0 -8 5 -5 11 9 13 13 69 6 69 -3 0 -6 17 -7 38 -1 40 -7 76 -18 107 -14 40
-67 142 -84 161 -60 69 -59 61 -8 85 25 11 46 25 46 31 0 5 4 7 9 3 6 -3 41
25 78 62 73 73 96 101 101 124 2 8 8 16 13 17 5 2 9 11 9 21 0 9 5 22 10 27
10 10 14 22 27 84 14 67 9 206 -10 260 -10 30 -19 61 -20 68 0 6 -4 12 -9 12
-4 0 -8 5 -8 11 0 30 -96 144 -162 193 -38 28 -28 57 47 130 36 35 65 68 65
73 0 5 9 18 20 28 11 10 18 20 16 24 -2 3 4 23 14 44 40 82 55 242 31 322 -22
74 -56 155 -63 155 -5 0 -8 7 -8 15 0 8 -4 15 -10 15 -5 0 -10 5 -10 12 0 16
-118 125 -152 140 -15 7 -28 16 -28 20 0 5 -3 7 -7 6 -20 -4 -62 23 -61 39 1
16 -9 81 -16 108 -13 47 -58 145 -68 145 -4 0 -8 7 -8 15 0 8 -4 15 -10 15 -5
0 -10 5 -10 11 0 16 -75 85 -135 124 -27 18 -76 41 -109 51 -32 10 -61 25 -64
32 -3 8 3 28 13 46 33 56 50 96 68 161 18 64 14 216 -8 267 -8 21 -15 40 -15
43 4 23 -67 131 -122 188 -38 38 -68 67 -68 63 0 -3 -17 4 -37 17 -21 13 -51
28 -68 34 -16 6 -39 14 -50 19 -29 10 -44 13 -96 18 -51 4 -72 13 -64 26 3 5
1 11 -5 15 -5 3 -17 21 -25 39 -19 40 -123 146 -162 166 -15 8 -36 21 -45 29
-10 8 -18 11 -18 6 0 -4 -6 -3 -12 2 -12 10 -81 35 -103 38 -5 1 -12 3 -15 4
-3 2 -43 4 -90 5 -78 2 -85 4 -82 22 2 10 6 37 9 59 41 271 -134 530 -402 594
-61 15 -208 15 -235 1 -11 -6 -20 -8 -20 -6 0 3 -10 2 -23 -3 -38 -15 -57 8
-61 75 -6 90 -54 244 -77 244 -5 0 -9 7 -9 15 0 23 -129 147 -185 177 -128 69
-291 83 -434 37 -20 -6 -40 -15 -46 -20 -5 -5 -17 -9 -27 -9 -10 0 -18 -5 -18
-11 0 -12 -51 -3 -60 11 -3 4 -25 16 -50 26 -25 10 -47 20 -50 23 -3 3 -14 7
-25 9 -11 1 -33 5 -50 8 -65 11 -133 10 -200 -3 -78 -16 -185 -63 -214 -94
-16 -17 -23 -19 -40 -10 -11 7 -20 15 -19 19 1 4 -4 20 -10 35 -7 16 -12 33
-12 38 0 5 -3 9 -8 9 -4 0 -13 13 -19 28 -16 35 -105 132 -122 132 -7 0 -9 5
-6 10 3 6 0 10 -9 10 -8 0 -16 3 -18 8 -1 4 -28 19 -58 33 -87 42 -117 49
-225 56 -44 3 -82 3 -85 0z"/>
</g>
</svg>
